<?xml version="1.0" standalone="no"?>
<!DOCTYPE svg PUBLIC "-//W3C//DTD SVG 20010904//EN"
 "http://www.w3.org/TR/2001/REC-SVG-20010904/DTD/svg10.dtd">
<svg version="1.0" xmlns="http://www.w3.org/2000/svg"
 width="1402.000000pt" height="1402.000000pt" viewBox="0 0 1402.000000 1402.000000"
 preserveAspectRatio="xMidYMid meet">

<g transform="translate(0.000000,1402.000000) scale(0.100000,-0.100000)"
fill="#000000" stroke="none">
<path d="M9125 10240 c-38 -6 -110 -16 -160 -24 -49 -8 -121 -18 -160 -21
-112 -10 -256 -33 -470 -76 -324 -64 -444 -99 -621 -179 -297 -134 -382 -189
-530 -342 -147 -153 -188 -255 -182 -447 3 -109 5 -120 36 -177 32 -59 106
-143 117 -133 2 3 0 21 -5 40 -25 86 0 233 59 354 48 98 173 231 299 319 85
59 333 184 482 241 183 71 615 159 1030 211 69 8 172 22 230 29 149 20 948 21
1075 1 50 -8 152 -24 228 -36 190 -29 502 -101 624 -144 129 -46 451 -200 557
-268 119 -76 257 -189 365 -297 129 -131 86 -64 -80 122 -138 156 -261 263
-417 364 -145 93 -438 233 -605 287 -129 43 -418 107 -657 147 l-185 31 -480
3 c-264 2 -511 0 -550 -5z"/>
<path d="M4145 9850 c-138 -9 -202 -21 -390 -71 -223 -60 -408 -124 -515 -177
-290 -146 -654 -341 -715 -382 -38 -26 -117 -78 -175 -115 -57 -37 -123 -83
-145 -101 -22 -19 -85 -70 -140 -113 -205 -164 -583 -540 -716 -711 -193 -250
-290 -429 -338 -627 -19 -77 -22 -113 -19 -215 3 -108 7 -130 30 -180 24 -53
110 -158 129 -158 4 0 3 17 -3 38 -16 59 -3 264 22 352 52 177 190 417 367
635 150 185 550 571 761 733 270 208 526 359 1092 644 160 80 594 211 795 239
119 17 529 17 615 1 401 -77 798 -278 1111 -561 42 -39 80 -71 83 -71 28 0
-86 138 -198 239 -336 306 -696 496 -1098 581 -108 23 -379 33 -553 20z"/>
<path d="M9285 9785 c-49 -8 -169 -23 -265 -35 -190 -23 -301 -41 -539 -89
-302 -61 -372 -84 -613 -200 -321 -153 -471 -313 -472 -498 0 -57 17 -90 68
-127 25 -19 41 -21 169 -20 105 1 163 7 222 22 44 11 123 27 175 37 52 9 185
38 295 65 188 45 416 93 421 87 1 -1 -8 -58 -21 -127 -25 -131 -83 -445 -284
-1540 -255 -1385 -311 -1691 -342 -1865 -17 -99 -35 -183 -38 -187 -4 -5 -72
-19 -151 -33 -254 -43 -554 -129 -675 -195 -213 -115 -328 -253 -329 -396 -1
-55 3 -67 30 -101 50 -61 103 -76 254 -70 85 4 146 12 190 26 93 28 168 45
395 84 269 47 342 56 530 63 289 11 530 -17 865 -98 112 -27 234 -56 270 -63
36 -8 128 -28 205 -45 77 -17 221 -47 320 -66 l180 -35 235 5 c129 3 249 9
265 15 265 84 677 219 735 241 123 46 289 97 390 121 52 12 163 41 246 64 83
24 168 47 190 50 88 16 241 58 279 77 78 40 156 100 196 150 67 85 139 216
169 307 80 247 78 458 -10 966 -45 259 -59 337 -85 495 -51 311 -87 491 -125
635 -22 83 -59 220 -81 305 -52 196 -157 529 -203 642 -137 338 -369 643 -651
853 -127 96 -454 261 -630 320 -153 50 -498 121 -805 164 -106 15 -869 12
-975 -4z m970 -720 c50 -8 137 -19 195 -26 136 -14 322 -61 430 -106 75 -32
95 -47 170 -123 106 -108 181 -237 310 -535 95 -219 138 -339 290 -815 114
-355 127 -396 135 -440 4 -19 17 -71 30 -115 78 -270 97 -422 72 -586 -27
-181 -85 -252 -277 -345 -335 -161 -1164 -578 -1385 -696 l-250 -133 -115 1
c-63 0 -142 6 -175 13 -33 7 -150 32 -260 56 -110 24 -217 46 -237 50 -21 3
-38 11 -38 18 0 7 9 46 19 87 11 41 62 244 115 450 52 206 143 564 201 795 58
231 133 524 165 650 32 127 100 392 150 590 50 198 139 547 197 775 58 228
108 425 110 437 4 18 11 21 32 18 14 -3 67 -12 116 -20z"/>
<path d="M11590 6577 c-67 -87 -187 -171 -294 -207 -63 -20 -848 -410 -1215
-603 l-343 -180 -92 13 c-50 7 -105 15 -121 17 -31 5 -31 4 -48 -68 -10 -40
-14 -75 -10 -79 13 -11 262 -62 370 -75 l52 -7 313 165 c308 162 979 499 1253
628 161 76 169 85 185 200 13 90 2 230 -18 229 -4 -1 -18 -15 -32 -33z"/>
<path d="M4365 9403 c-160 -8 -346 -49 -630 -139 -139 -44 -191 -68 -520 -239
-93 -49 -208 -109 -254 -132 -46 -24 -116 -66 -155 -92 -39 -27 -111 -75 -161
-106 -49 -32 -107 -73 -130 -91 -22 -18 -80 -66 -130 -105 -174 -137 -545
-500 -662 -648 -95 -120 -230 -329 -262 -406 -111 -265 -88 -455 53 -455 56 0
121 42 260 167 131 117 383 361 475 458 77 82 150 145 169 145 7 0 15 -8 19
-17 22 -64 365 -943 560 -1438 64 -163 167 -425 323 -825 20 -52 119 -306 220
-563 211 -541 204 -466 55 -577 -87 -64 -275 -253 -349 -351 -89 -118 -147
-274 -162 -442 -5 -62 -3 -81 14 -119 22 -51 61 -83 114 -93 59 -11 120 23
228 130 179 177 345 331 415 387 81 64 253 180 340 227 33 19 89 55 125 80
135 98 312 181 630 295 69 24 143 52 164 61 22 9 112 39 200 65 145 44 242 78
346 121 106 43 309 151 405 215 144 95 262 216 409 419 64 88 141 194 171 235
55 75 257 286 435 455 305 288 376 396 400 599 11 95 -1 195 -37 316 -34 111
-77 196 -182 355 -116 176 -247 331 -486 575 -111 113 -243 250 -295 305 -229
243 -390 403 -579 573 -292 265 -435 371 -623 461 -186 89 -234 108 -372 146
-178 48 -307 60 -541 48z m150 -742 c39 -18 81 -43 95 -55 27 -25 92 -72 325
-234 83 -58 203 -148 268 -201 66 -53 161 -130 212 -171 458 -370 763 -668
842 -825 12 -22 30 -74 42 -116 17 -62 19 -85 12 -126 -13 -67 -50 -148 -95
-207 -63 -82 -507 -756 -565 -857 -29 -52 -68 -117 -86 -144 -17 -28 -40 -66
-50 -85 -60 -119 -197 -342 -238 -386 -66 -73 -87 -84 -303 -163 -104 -38
-232 -86 -284 -105 -52 -20 -97 -32 -101 -28 -6 6 -86 258 -139 437 -10 33
-59 193 -110 355 -51 162 -99 318 -107 345 -18 60 -117 382 -209 678 -37 116
-74 239 -84 272 -10 33 -59 193 -109 355 -51 162 -117 376 -147 475 -31 99
-85 272 -120 384 -35 112 -63 205 -62 206 33 28 401 171 528 205 97 26 117 28
260 26 151 -2 157 -3 225 -35z"/>
<path d="M5905 7191 c7 -31 -12 -79 -45 -116 -40 -45 -531 -794 -608 -927 -45
-79 -102 -177 -126 -218 -135 -236 -168 -288 -193 -312 -16 -16 -71 -42 -127
-63 -55 -20 -105 -39 -112 -43 -9 -5 -4 -34 22 -117 19 -60 36 -110 37 -111 1
-1 70 23 152 53 94 34 160 65 178 81 26 25 98 141 186 302 112 203 243 414
470 754 139 210 261 390 272 401 10 11 25 37 34 59 15 35 15 42 0 88 -15 43
-125 198 -141 198 -3 0 -3 -13 1 -29z"/>
<path d="M8315 8676 l-80 -23 -37 -199 c-41 -221 -242 -1316 -343 -1864 -35
-195 -86 -470 -112 -612 l-47 -256 -46 -7 c-67 -10 -414 -100 -500 -130 -41
-15 -119 -50 -174 -77 -109 -57 -101 -48 -268 -283 -50 -71 -117 -161 -147
-199 -48 -61 -55 -76 -59 -124 -9 -109 43 -248 120 -318 22 -20 42 -34 44 -32
2 3 -1 20 -6 39 -25 88 2 249 62 362 42 78 157 200 251 265 87 60 237 136 332
169 83 29 431 119 495 128 l45 7 44 236 c95 520 132 723 156 847 13 72 47 256
75 410 28 154 69 375 90 490 21 116 77 422 125 680 47 259 88 480 90 493 7 28
-4 28 -110 -2z"/>
<path d="M3285 4731 c-23 -10 -69 -45 -105 -77 -114 -105 -303 -327 -358 -420
-92 -156 -147 -375 -140 -555 3 -87 7 -104 40 -170 33 -66 110 -160 122 -148
3 2 0 25 -6 49 -24 106 22 396 86 536 63 136 244 361 429 530 l64 59 -39 100
c-22 55 -43 103 -46 107 -4 4 -25 -1 -47 -11z"/>
</g>
</svg>
